<?xml version="1.0" standalone="no"?>
<!DOCTYPE svg PUBLIC "-//W3C//DTD SVG 20010904//EN"
 "http://www.w3.org/TR/2001/REC-SVG-20010904/DTD/svg10.dtd">
<svg version="1.0" xmlns="http://www.w3.org/2000/svg"
 width="700.000000pt" height="700.000000pt" viewBox="0 0 700.000000 700.000000"
 preserveAspectRatio="xMidYMid meet">
<metadata>
Created by potrace 1.11, written by Peter Selinger 2001-2013
</metadata>
<g transform="translate(0.000000,700.000000) scale(0.100000,-0.100000)"
fill="#000000" stroke="none">
<path d="M726 6350 c-51 -10 -73 -38 -81 -103 -3 -28 -5 -1285 -3 -2792 3
-2589 4 -2742 20 -2768 11 -16 33 -30 57 -37 27 -7 903 -9 2815 -8 l2776 3 27
28 28 27 0 2800 0 2800 -28 27 -27 28 -2773 1 c-1524 1 -2790 -2 -2811 -6z
m5544 -2850 l0 -2760 -2765 0 -2765 0 0 2760 0 2760 2765 0 2765 0 0 -2760z"/>
<path d="M2457 5564 c-4 -4 -7 -376 -7 -826 l0 -818 110 0 110 0 0 368 0 369
31 61 c39 78 86 117 173 144 167 51 333 -14 398 -157 21 -48 22 -62 26 -417
l4 -368 105 0 104 0 -3 413 -3 412 -33 71 c-43 92 -114 162 -207 205 -62 30
-81 33 -183 37 -87 4 -128 1 -178 -13 -73 -20 -166 -75 -207 -124 l-27 -32 -2
338 -3 338 -101 3 c-55 1 -103 0 -107 -4z"/>
<path d="M4378 5563 l-58 -4 0 -819 0 -820 110 0 110 0 -2 823 -3 822 -50 1
c-27 0 -76 -1 -107 -3z"/>
<path d="M3843 5530 c-45 -27 -66 -64 -66 -115 0 -83 63 -139 147 -132 42 4
55 10 83 41 28 30 33 43 33 83 0 111 -107 178 -197 123z"/>
<path d="M1518 5041 c-82 -27 -138 -62 -196 -126 -28 -30 -53 -55 -56 -55 -3
0 -6 41 -6 90 l0 90 -105 0 -105 0 0 -795 0 -796 108 3 107 3 3 323 2 323 51
-56 c94 -102 199 -145 358 -145 152 0 260 40 359 134 114 107 171 239 179 416
6 129 -12 226 -62 327 -64 129 -189 232 -330 269 -73 20 -237 17 -307 -5z
m277 -200 c109 -54 173 -148 195 -285 13 -82 0 -196 -30 -264 -79 -178 -278
-255 -473 -182 -75 28 -140 92 -180 178 -31 64 -32 72 -32 193 0 125 0 125 38
202 68 139 178 200 341 192 62 -2 91 -9 141 -34z"/>
<path d="M3800 4480 l0 -560 110 0 110 0 0 560 0 560 -110 0 -110 0 0 -560z"/>
<path d="M1420 3500 l0 -60 1440 -2 c792 -2 1495 -3 1563 -3 l122 0 3 56 3 56
-1013 6 c-557 4 -1262 7 -1565 7 l-553 0 0 -60z"/>
<path d="M3812 3105 c-29 -8 -65 -21 -80 -29 -49 -25 -111 -99 -134 -156 -20
-54 -21 -71 -26 -757 l-5 -703 112 0 111 0 0 469 0 468 61 7 c34 3 111 6 170
6 l109 0 0 85 0 85 -170 0 -170 0 0 108 c0 134 20 182 91 220 39 21 54 23 134
20 50 -3 98 -8 107 -12 14 -6 17 1 23 51 12 116 16 106 -45 126 -75 25 -220
31 -288 12z"/>
<path d="M4330 2280 l0 -820 105 0 105 0 0 820 0 820 -105 0 -105 0 0 -820z"/>
<path d="M2535 2947 c-129 -43 -200 -117 -231 -239 -30 -117 2 -238 96 -358
24 -30 47 -60 52 -67 6 -8 -9 -21 -51 -43 -75 -40 -169 -124 -209 -188 -70
-108 -80 -266 -24 -385 79 -170 287 -269 500 -238 111 16 185 56 291 157 l89
84 100 -105 100 -105 108 0 107 0 -162 165 c-88 90 -161 170 -161 176 0 7 39
77 87 158 48 80 106 179 130 219 l43 72 -85 0 -84 0 -42 -72 c-23 -40 -68
-118 -101 -173 l-58 -100 -165 170 c-90 94 -165 172 -165 175 0 3 30 23 66 45
81 47 176 134 209 190 50 84 52 213 5 305 -25 49 -100 116 -158 142 -60 26
-226 35 -287 15z m175 -128 c56 -12 111 -53 136 -100 19 -37 18 -133 -2 -175
-21 -45 -89 -103 -178 -155 l-71 -41 -46 51 c-68 76 -104 153 -103 221 1 97
53 166 147 196 53 16 56 16 117 3z m39 -838 c105 -110 191 -205 191 -210 0
-25 -137 -149 -195 -177 -53 -25 -71 -29 -150 -29 -104 0 -157 20 -220 83
-107 105 -109 277 -5 395 24 28 173 137 186 137 1 0 88 -90 193 -199z"/>
<path d="M5212 2580 c-247 -65 -396 -255 -409 -521 -16 -315 150 -544 439
-604 215 -46 438 13 573 150 106 108 155 239 155 419 0 284 -153 489 -416 556
-101 26 -242 26 -342 0z m259 -174 c32 -7 77 -24 100 -39 262 -154 230 -613
-50 -717 -77 -30 -224 -25 -292 8 -73 36 -125 87 -158 155 -102 209 -34 475
143 562 88 43 167 53 257 31z"/>
</g>
</svg>
